<svg width="284" height="210" viewBox="0 0 284 210" fill="none" xmlns="http://www.w3.org/2000/svg">
<path d="M20.6552 82.6205L36.1465 70.3069V125.52H120.753V0L136.642 12.3136V141.805H20.6552V82.6205Z" fill="white"/>
<path d="M0 83.8121V64.3486L78.2511 3.57492L156.105 64.3486V83.8121L78.2511 23.4356L0 83.8121Z" fill="white"/>
<path d="M88.9759 71.1013C88.9759 77.0244 84.1743 81.8261 78.2511 81.8261C72.328 81.8261 67.5264 77.0244 67.5264 71.1013C67.5264 65.1782 72.328 60.3765 78.2511 60.3765C84.1743 60.3765 88.9759 65.1782 88.9759 71.1013Z" fill="white"/>
<path d="M256.768 131.398H271.382V141.408H243.689V94.3621H256.768V131.398Z" fill="white"/>
<path d="M214.646 131.398H229.26V141.408H201.567V94.3621H214.646V131.398Z" fill="white"/>
<path d="M172.524 131.398H187.139V141.408H159.445V94.3621H172.524V131.398Z" fill="white"/>
<path d="M284 201.425C284 201.656 283.985 201.888 283.955 202.119H278.355C278.385 202.582 278.511 202.929 278.732 203.161C278.964 203.382 279.255 203.493 279.608 203.493C280.101 203.493 280.453 203.271 280.664 202.829H283.819C283.688 203.412 283.431 203.935 283.049 204.398C282.677 204.851 282.204 205.208 281.63 205.47C281.057 205.732 280.423 205.862 279.728 205.862C278.893 205.862 278.149 205.686 277.494 205.334C276.85 204.982 276.342 204.479 275.97 203.825C275.608 203.171 275.427 202.401 275.427 201.515C275.427 200.63 275.608 199.865 275.97 199.221C276.332 198.567 276.835 198.064 277.479 197.712C278.133 197.359 278.883 197.183 279.728 197.183C280.564 197.183 281.303 197.354 281.947 197.697C282.591 198.039 283.094 198.532 283.457 199.176C283.819 199.81 284 200.559 284 201.425ZM280.981 200.685C280.981 200.323 280.86 200.041 280.619 199.84C280.377 199.629 280.076 199.523 279.713 199.523C279.351 199.523 279.054 199.624 278.823 199.825C278.591 200.016 278.44 200.303 278.37 200.685H280.981Z" fill="white"/>
<path d="M268.988 197.214C269.964 197.214 270.739 197.541 271.313 198.195C271.886 198.839 272.173 199.714 272.173 200.821V205.757H269.215V201.213C269.215 200.73 269.089 200.353 268.837 200.081C268.586 199.8 268.249 199.659 267.826 199.659C267.383 199.659 267.036 199.8 266.784 200.081C266.533 200.353 266.407 200.73 266.407 201.213V205.757H263.449V197.289H266.407V198.497C266.669 198.114 267.021 197.807 267.464 197.576C267.906 197.334 268.415 197.214 268.988 197.214Z" fill="white"/>
<path d="M255.679 205.862C254.834 205.862 254.074 205.686 253.4 205.334C252.736 204.982 252.212 204.479 251.83 203.825C251.448 203.171 251.256 202.401 251.256 201.515C251.256 200.64 251.448 199.875 251.83 199.221C252.223 198.567 252.751 198.064 253.415 197.712C254.089 197.359 254.849 197.183 255.694 197.183C256.539 197.183 257.294 197.359 257.958 197.712C258.632 198.064 259.161 198.567 259.543 199.221C259.936 199.875 260.132 200.64 260.132 201.515C260.132 202.391 259.936 203.161 259.543 203.825C259.161 204.479 258.632 204.982 257.958 205.334C257.284 205.686 256.524 205.862 255.679 205.862ZM255.679 203.296C256.092 203.296 256.434 203.146 256.705 202.844C256.987 202.532 257.128 202.089 257.128 201.515C257.128 200.942 256.987 200.504 256.705 200.202C256.434 199.9 256.097 199.749 255.694 199.749C255.292 199.749 254.955 199.9 254.683 200.202C254.411 200.504 254.275 200.942 254.275 201.515C254.275 202.099 254.406 202.542 254.668 202.844C254.929 203.146 255.266 203.296 255.679 203.296Z" fill="white"/>
<path d="M247.942 194.587V205.757H244.983V194.587H247.942Z" fill="white"/>
<path d="M232.128 201.515C232.128 200.64 232.284 199.875 232.596 199.221C232.918 198.567 233.35 198.064 233.894 197.712C234.447 197.359 235.061 197.183 235.735 197.183C236.319 197.183 236.822 197.299 237.245 197.53C237.667 197.762 237.994 198.074 238.226 198.466V197.289H241.184V205.757H238.226V204.579C237.994 204.972 237.662 205.284 237.229 205.515C236.807 205.747 236.309 205.862 235.735 205.862C235.061 205.862 234.447 205.686 233.894 205.334C233.35 204.982 232.918 204.479 232.596 203.825C232.284 203.161 232.128 202.391 232.128 201.515ZM238.226 201.515C238.226 200.972 238.075 200.544 237.773 200.232C237.481 199.92 237.119 199.764 236.686 199.764C236.243 199.764 235.876 199.92 235.584 200.232C235.292 200.534 235.146 200.962 235.146 201.515C235.146 202.059 235.292 202.491 235.584 202.813C235.876 203.125 236.243 203.281 236.686 203.281C237.119 203.281 237.481 203.125 237.773 202.813C238.075 202.501 238.226 202.069 238.226 201.515Z" fill="white"/>
<path d="M220.524 205.862C219.759 205.862 219.075 205.737 218.471 205.485C217.877 205.223 217.404 204.871 217.052 204.429C216.71 203.976 216.519 203.468 216.479 202.904H219.347C219.387 203.176 219.513 203.387 219.724 203.538C219.935 203.689 220.197 203.764 220.509 203.764C220.75 203.764 220.941 203.714 221.082 203.613C221.223 203.513 221.294 203.382 221.294 203.221C221.294 203.01 221.178 202.854 220.946 202.753C220.715 202.652 220.333 202.542 219.799 202.421C219.196 202.3 218.692 202.164 218.29 202.013C217.887 201.862 217.535 201.616 217.233 201.274C216.942 200.932 216.796 200.469 216.796 199.885C216.796 199.382 216.931 198.929 217.203 198.527C217.475 198.114 217.872 197.787 218.396 197.546C218.929 197.304 219.568 197.183 220.313 197.183C221.419 197.183 222.29 197.455 222.924 197.998C223.558 198.542 223.925 199.256 224.026 200.142H221.354C221.304 199.87 221.183 199.664 220.992 199.523C220.811 199.372 220.564 199.296 220.252 199.296C220.011 199.296 219.825 199.342 219.694 199.432C219.573 199.523 219.513 199.649 219.513 199.81C219.513 200.011 219.628 200.167 219.86 200.278C220.091 200.378 220.463 200.484 220.977 200.595C221.591 200.725 222.099 200.871 222.501 201.032C222.914 201.193 223.271 201.455 223.573 201.817C223.885 202.169 224.041 202.652 224.041 203.266C224.041 203.759 223.895 204.202 223.603 204.595C223.321 204.987 222.914 205.299 222.38 205.53C221.857 205.752 221.238 205.862 220.524 205.862Z" fill="white"/>
<path d="M213.119 197.289V205.757H210.146V204.549C209.894 204.932 209.547 205.244 209.104 205.485C208.662 205.717 208.153 205.832 207.58 205.832C206.594 205.832 205.814 205.51 205.24 204.866C204.677 204.212 204.395 203.327 204.395 202.21V197.289H207.338V201.832C207.338 202.315 207.464 202.698 207.716 202.979C207.977 203.251 208.319 203.387 208.742 203.387C209.175 203.387 209.517 203.251 209.769 202.979C210.02 202.698 210.146 202.315 210.146 201.832V197.289H213.119Z" fill="white"/>
<path d="M196.129 201.425C196.129 201.656 196.114 201.888 196.084 202.119H190.484C190.514 202.582 190.64 202.929 190.861 203.161C191.093 203.382 191.385 203.493 191.737 203.493C192.23 203.493 192.582 203.271 192.794 202.829H195.948C195.817 203.412 195.561 203.935 195.178 204.398C194.806 204.851 194.333 205.208 193.76 205.47C193.186 205.732 192.552 205.862 191.858 205.862C191.022 205.862 190.278 205.686 189.624 205.334C188.98 204.982 188.472 204.479 188.099 203.825C187.737 203.171 187.556 202.401 187.556 201.515C187.556 200.63 187.737 199.865 188.099 199.221C188.461 198.567 188.965 198.064 189.609 197.712C190.263 197.359 191.012 197.183 191.858 197.183C192.693 197.183 193.433 197.354 194.077 197.697C194.721 198.039 195.224 198.532 195.586 199.176C195.948 199.81 196.129 200.559 196.129 201.425ZM193.11 200.685C193.11 200.323 192.99 200.041 192.748 199.84C192.507 199.629 192.205 199.523 191.843 199.523C191.48 199.523 191.183 199.624 190.952 199.825C190.721 200.016 190.57 200.303 190.499 200.685H193.11Z" fill="white"/>
<path d="M180.954 205.862C180.19 205.862 179.505 205.737 178.901 205.485C178.308 205.223 177.835 204.871 177.483 204.429C177.141 203.976 176.949 203.468 176.909 202.904H179.777C179.817 203.176 179.943 203.387 180.154 203.538C180.366 203.689 180.627 203.764 180.939 203.764C181.181 203.764 181.372 203.714 181.513 203.613C181.654 203.513 181.724 203.382 181.724 203.221C181.724 203.01 181.608 202.854 181.377 202.753C181.145 202.652 180.763 202.542 180.23 202.421C179.626 202.3 179.123 202.164 178.72 202.013C178.318 201.862 177.966 201.616 177.664 201.274C177.372 200.932 177.226 200.469 177.226 199.885C177.226 199.382 177.362 198.929 177.634 198.527C177.905 198.114 178.303 197.787 178.826 197.546C179.359 197.304 179.998 197.183 180.743 197.183C181.85 197.183 182.72 197.455 183.354 197.998C183.988 198.542 184.355 199.256 184.456 200.142H181.784C181.734 199.87 181.613 199.664 181.422 199.523C181.241 199.372 180.995 199.296 180.683 199.296C180.441 199.296 180.255 199.342 180.124 199.432C180.003 199.523 179.943 199.649 179.943 199.81C179.943 200.011 180.059 200.167 180.29 200.278C180.522 200.378 180.894 200.484 181.407 200.595C182.021 200.725 182.529 200.871 182.932 201.032C183.344 201.193 183.701 201.455 184.003 201.817C184.315 202.169 184.471 202.652 184.471 203.266C184.471 203.759 184.325 204.202 184.033 204.595C183.752 204.987 183.344 205.299 182.811 205.53C182.288 205.752 181.669 205.862 180.954 205.862Z" fill="white"/>
<path d="M164.491 201.515C164.491 200.64 164.647 199.875 164.959 199.221C165.281 198.567 165.714 198.064 166.257 197.712C166.811 197.359 167.425 197.183 168.099 197.183C168.682 197.183 169.185 197.299 169.608 197.53C170.031 197.762 170.358 198.074 170.589 198.466V197.289H173.548V205.757H170.589V204.579C170.358 204.972 170.026 205.284 169.593 205.515C169.17 205.747 168.672 205.862 168.099 205.862C167.425 205.862 166.811 205.686 166.257 205.334C165.714 204.982 165.281 204.479 164.959 203.825C164.647 203.161 164.491 202.391 164.491 201.515ZM170.589 201.515C170.589 200.972 170.438 200.544 170.136 200.232C169.845 199.92 169.482 199.764 169.05 199.764C168.607 199.764 168.24 199.92 167.948 200.232C167.656 200.534 167.51 200.962 167.51 201.515C167.51 202.059 167.656 202.491 167.948 202.813C168.24 203.125 168.607 203.281 169.05 203.281C169.482 203.281 169.845 203.125 170.136 202.813C170.438 202.501 170.589 202.069 170.589 201.515Z" fill="white"/>
<path d="M161.65 201.425C161.65 201.656 161.635 201.888 161.605 202.119H156.005C156.035 202.582 156.161 202.929 156.383 203.161C156.614 203.382 156.906 203.493 157.258 203.493C157.751 203.493 158.103 203.271 158.315 202.829H161.469C161.338 203.412 161.082 203.935 160.699 204.398C160.327 204.851 159.854 205.208 159.281 205.47C158.707 205.732 158.073 205.862 157.379 205.862C156.544 205.862 155.799 205.686 155.145 205.334C154.501 204.982 153.993 204.479 153.62 203.825C153.258 203.171 153.077 202.401 153.077 201.515C153.077 200.63 153.258 199.865 153.62 199.221C153.983 198.567 154.486 198.064 155.13 197.712C155.784 197.359 156.533 197.183 157.379 197.183C158.214 197.183 158.954 197.354 159.598 197.697C160.242 198.039 160.745 198.532 161.107 199.176C161.469 199.81 161.65 200.559 161.65 201.425ZM158.632 200.685C158.632 200.323 158.511 200.041 158.269 199.84C158.028 199.629 157.726 199.523 157.364 199.523C157.001 199.523 156.705 199.624 156.473 199.825C156.242 200.016 156.091 200.303 156.02 200.685H158.632Z" fill="white"/>
<path d="M146.991 203.493H150.296V205.757H144.032V195.115H146.991V203.493Z" fill="white"/>
<path d="M135.355 203.221L133.74 207.628H131.869L132.653 203.221H135.355Z" fill="white"/>
<path d="M125.279 197.214C126.245 197.214 127.01 197.541 127.574 198.195C128.147 198.839 128.434 199.714 128.434 200.821V205.757H125.475V201.213C125.475 200.73 125.35 200.353 125.098 200.081C124.847 199.8 124.509 199.659 124.087 199.659C123.644 199.659 123.297 199.8 123.045 200.081C122.794 200.353 122.668 200.73 122.668 201.213V205.757H119.709V194.587H122.668V198.497C122.93 198.114 123.282 197.807 123.725 197.576C124.177 197.334 124.696 197.214 125.279 197.214Z" fill="white"/>
<path d="M110.462 197.183C111.035 197.183 111.533 197.299 111.956 197.53C112.389 197.762 112.721 198.074 112.952 198.466V197.289H115.911V205.666C115.911 206.461 115.76 207.176 115.458 207.81C115.156 208.454 114.683 208.967 114.039 209.349C113.405 209.732 112.6 209.923 111.624 209.923C110.316 209.923 109.269 209.616 108.484 209.002C107.699 208.388 107.252 207.553 107.141 206.496H110.054C110.114 206.768 110.265 206.979 110.507 207.13C110.748 207.281 111.06 207.357 111.443 207.357C112.449 207.357 112.952 206.793 112.952 205.666V204.579C112.721 204.972 112.389 205.284 111.956 205.515C111.533 205.747 111.035 205.862 110.462 205.862C109.787 205.862 109.174 205.686 108.62 205.334C108.077 204.982 107.644 204.479 107.322 203.825C107.01 203.161 106.854 202.391 106.854 201.515C106.854 200.64 107.01 199.875 107.322 199.221C107.644 198.567 108.077 198.064 108.62 197.712C109.174 197.359 109.787 197.183 110.462 197.183ZM112.952 201.515C112.952 200.972 112.801 200.544 112.499 200.232C112.208 199.92 111.845 199.764 111.413 199.764C110.97 199.764 110.602 199.92 110.311 200.232C110.019 200.534 109.873 200.962 109.873 201.515C109.873 202.059 110.019 202.491 110.311 202.813C110.602 203.125 110.97 203.281 111.413 203.281C111.845 203.281 112.208 203.125 112.499 202.813C112.801 202.501 112.952 202.069 112.952 201.515Z" fill="white"/>
<path d="M103.54 197.289V205.757H100.567V204.549C100.315 204.932 99.9679 205.244 99.5251 205.485C99.0823 205.717 98.5742 205.832 98.0006 205.832C97.0144 205.832 96.2346 205.51 95.661 204.866C95.0975 204.212 94.8157 203.327 94.8157 202.21V197.289H97.7591V201.832C97.7591 202.315 97.8849 202.698 98.1364 202.979C98.3981 203.251 98.7402 203.387 99.1628 203.387C99.5955 203.387 99.9377 203.251 100.189 202.979C100.441 202.698 100.567 202.315 100.567 201.832V197.289H103.54Z" fill="white"/>
<path d="M82.0207 201.515C82.0207 200.64 82.1767 199.875 82.4886 199.221C82.8106 198.567 83.2433 198.064 83.7867 197.712C84.3402 197.359 84.954 197.183 85.6282 197.183C86.2118 197.183 86.715 197.299 87.1376 197.53C87.5602 197.762 87.8873 198.074 88.1187 198.466V197.289H91.0772V205.757H88.1187V204.579C87.8873 204.972 87.5552 205.284 87.1225 205.515C86.6999 205.747 86.2018 205.862 85.6282 205.862C84.954 205.862 84.3402 205.686 83.7867 205.334C83.2433 204.982 82.8106 204.479 82.4886 203.825C82.1767 203.161 82.0207 202.391 82.0207 201.515ZM88.1187 201.515C88.1187 200.972 87.9678 200.544 87.6659 200.232C87.3741 199.92 87.0118 199.764 86.5791 199.764C86.1364 199.764 85.7691 199.92 85.4772 200.232C85.1854 200.534 85.0395 200.962 85.0395 201.515C85.0395 202.059 85.1854 202.491 85.4772 202.813C85.7691 203.125 86.1364 203.281 86.5791 203.281C87.0118 203.281 87.3741 203.125 87.6659 202.813C87.9678 202.501 88.1187 202.069 88.1187 201.515Z" fill="white"/>
<path d="M75.9345 203.493H79.2401V205.757H72.9761V195.115H75.9345V203.493Z" fill="white"/>
<path d="M64.2991 203.221L62.684 207.628H60.8124L61.5973 203.221H64.2991Z" fill="white"/>
<path d="M57.7903 201.425C57.7903 201.656 57.7752 201.888 57.745 202.119H52.1451C52.1753 202.582 52.3011 202.929 52.5225 203.161C52.7539 203.382 53.0457 203.493 53.3979 203.493C53.891 203.493 54.2432 203.271 54.4545 202.829H57.6092C57.4784 203.412 57.2218 203.935 56.8394 204.398C56.4671 204.851 55.9941 205.208 55.4205 205.47C54.847 205.732 54.213 205.862 53.5187 205.862C52.6835 205.862 51.9388 205.686 51.2848 205.334C50.6407 204.982 50.1326 204.479 49.7602 203.825C49.398 203.171 49.2169 202.401 49.2169 201.515C49.2169 200.63 49.398 199.865 49.7602 199.221C50.1225 198.567 50.6256 198.064 51.2697 197.712C51.9237 197.359 52.6734 197.183 53.5187 197.183C54.3539 197.183 55.0935 197.354 55.7375 197.697C56.3815 198.039 56.8847 198.532 57.2469 199.176C57.6092 199.81 57.7903 200.559 57.7903 201.425ZM54.7715 200.685C54.7715 200.323 54.6507 200.041 54.4092 199.84C54.1677 199.629 53.8658 199.523 53.5036 199.523C53.1413 199.523 52.8445 199.624 52.613 199.825C52.3816 200.016 52.2307 200.303 52.1602 200.685H54.7715Z" fill="white"/>
<path d="M41.8448 202.964L43.4296 197.289H46.5843L43.6711 205.757H39.9882L37.075 197.289H40.2297L41.8448 202.964Z" fill="white"/>
<path d="M32.5223 196.504C31.9991 196.504 31.5764 196.363 31.2544 196.081C30.9425 195.79 30.7865 195.427 30.7865 194.995C30.7865 194.552 30.9425 194.185 31.2544 193.893C31.5764 193.601 31.9991 193.455 32.5223 193.455C33.0355 193.455 33.4481 193.601 33.76 193.893C34.0821 194.185 34.2431 194.552 34.2431 194.995C34.2431 195.427 34.0821 195.79 33.76 196.081C33.4481 196.363 33.0355 196.504 32.5223 196.504ZM33.9865 197.289V205.757H31.028V197.289H33.9865Z" fill="white"/>
<path d="M24.4589 203.493H27.7645V205.757H21.5004V195.115H24.4589V203.493Z" fill="white"/>
<path fill-rule="evenodd" clip-rule="evenodd" d="M22.6412 166.433C22.6412 166.213 22.819 166.035 23.0384 166.035H274.872C275.091 166.035 275.269 166.213 275.269 166.433C275.269 166.652 275.091 166.83 274.872 166.83H23.0384C22.819 166.83 22.6412 166.652 22.6412 166.433Z" fill="white"/>
</svg>
